<svg width="36" height="44" viewBox="0 0 36 44" fill="none" xmlns="http://www.w3.org/2000/svg">
<path d="M35.9655 4.81953L35.8353 3.19297C35.833 3.17777 35.833 3.16257 35.8284 3.14737C35.1341 0.0180387 30.3171 -0.049282 29.4903 0.0115238L25.2741 0.313381C24.445 0.372015 23.8374 0.734679 23.8991 1.52298L23.9265 2.36775C23.9265 2.38078 23.9265 2.39381 23.9265 2.40684C23.8466 3.28635 23.4606 3.62295 22.7754 3.68159L2.26736 5.36895C1.50907 5.43193 0.944925 6.0617 1.00203 6.78268C1.05684 7.46241 1.64611 7.99229 2.36557 8.00314L10.3893 8.71327C11.1064 8.72413 11.698 9.25401 11.7528 9.93373L11.9424 12.3269C12.0063 13.1239 12.6733 13.7558 13.5115 13.8101L15.8503 13.9665C16.9283 14.0381 17.7986 13.1434 17.6432 12.1293L17.2367 9.49072C17.1225 8.75019 17.6775 8.06829 18.4586 7.98794L33.1493 6.59158L34.5837 6.48951C34.7321 6.49169 35.5544 6.28972 35.584 6.25498C35.7005 6.19851 35.9997 5.79025 35.9975 5.3038C35.9975 5.10835 35.9655 4.8369 35.9655 4.81953Z" fill="black"/>
<path d="M10.399 29.6786C10.6183 30.823 11.5456 31.7003 12.6967 31.8567L19.9142 32.8296C21.5404 33.0489 22.9701 31.7698 22.9359 30.1237L22.8696 27.0791C22.8537 26.3386 22.3009 25.7175 21.5701 25.6176L11.3355 24.2191C10.3282 24.0822 9.48998 24.9704 9.68184 25.9737L10.399 29.6786Z" fill="url(#paint0_linear)"/>
<path d="M23.5915 18.0929C23.5663 16.6118 22.3375 15.3979 20.7707 15.3089L9.60882 14.6791C7.65371 14.5683 6.11202 16.2253 6.47517 18.0429L6.98679 20.5968C7.2129 21.7239 8.17675 22.586 9.38042 22.7358L20.4692 24.1192C22.1731 24.332 23.6805 23.0616 23.6531 21.4372L23.5915 18.0929Z" fill="url(#paint1_linear)"/>
<path d="M18.6742 33.6113L15.1865 33.1553C14.6658 33.0879 14.4077 33.7351 14.8439 34.0109L16.6894 35.1836C17.08 35.4311 16.9201 36.0088 16.4519 36.0435L14.9421 36.1521C14.5858 36.1782 14.3734 36.5452 14.5447 36.8449L18.4801 43.7528C18.729 44.1893 19.4256 44.0091 19.4096 43.514L19.1036 34.063C19.0944 33.8328 18.914 33.6417 18.6742 33.6113Z" fill="black"/>
<defs>
<linearGradient id="paint0_linear" x1="9.88221" y1="28.9151" x2="22.9376" y2="27.9855" gradientUnits="userSpaceOnUse">
<stop stop-color="#AD2020"/>
<stop offset="1" stop-color="#D62828"/>
</linearGradient>
<linearGradient id="paint1_linear" x1="6.59048" y1="19.9627" x2="23.6421" y2="18.7405" gradientUnits="userSpaceOnUse">
<stop offset="0.0315" stop-color="#AD2020"/>
<stop offset="1" stop-color="#D62828"/>
</linearGradient>
</defs>
</svg>
